<?xml version="1.0" encoding="UTF-8"?>
<svg width="23px" height="18px" viewBox="0 0 23 18" version="1.1" xmlns="http://www.w3.org/2000/svg" xmlns:xlink="http://www.w3.org/1999/xlink">
    <!-- Generator: Sketch 51.3 (57544) - http://www.bohemiancoding.com/sketch -->
    <title>Combined Shape</title>
    <desc>Created with Sketch.</desc>
    <defs></defs>
    <g id="main2" stroke="none" stroke-width="1" fill="none" fill-rule="evenodd">
        <g id="Artboard-3" transform="translate(-808.000000, -104.000000)" fill="#FFFFFF" fill-rule="nonzero">
            <path d="M826.018311,116.003331 C829.148946,112.872695 830.038038,109.36918 828.438043,107.098984 C826.492351,104.338287 821.825594,104.402877 819.810076,108.384541 L819.363974,109.265817 L818.917873,108.384541 C816.902355,104.402877 812.235598,104.338287 810.289906,107.098984 C808.689911,109.36918 809.579003,112.872695 812.709638,116.003331 C814.102961,117.396654 816.33516,118.734011 819.363974,119.996811 C822.392789,118.734011 824.624987,117.396654 826.018311,116.003331 Z M829.255434,106.522901 C831.182453,109.257103 830.163495,113.27236 826.725418,116.710437 C825.194602,118.241253 822.791514,119.668571 819.554204,121.000392 L819.363974,121.078652 L819.173745,121.000392 C815.936434,119.668571 813.533347,118.241253 812.002531,116.710437 C808.564454,113.27236 807.545496,109.257103 809.472515,106.522901 C811.697417,103.36604 816.796784,103.250902 819.363974,107.160805 C821.931165,103.250902 827.030532,103.36604 829.255434,106.522901 Z" id="Combined-Shape"></path>
        </g>
    </g>
</svg>