<?xml version="1.0" standalone="no"?><!DOCTYPE svg PUBLIC "-//W3C//DTD SVG 1.1//EN" "http://www.w3.org/Graphics/SVG/1.1/DTD/svg11.dtd"><svg t="1552055054700" class="icon" style="" viewBox="0 0 1024 1024" version="1.1" xmlns="http://www.w3.org/2000/svg" p-id="1120" xmlns:xlink="http://www.w3.org/1999/xlink" width="200" height="200"><defs><style type="text/css"></style></defs><path d="M916.80024 128.6C801.20024 31.4 622.60024 46 512.00024 158.6 401.40024 46 222.80024 31.2 107.20024 128.6-43.19976 255.2-21.19976 461.6 86.00024 571l350.8 357.4c20 20.4 46.8 31.8 75.2 31.8 28.6 0 55.2-11.2 75.2-31.6L938.00024 571.2c107-109.4 129.4-315.8-21.2-442.6z m-47.2 375L518.80024 861c-4.8 4.8-8.8 4.8-13.6 0L154.40024 503.6c-73-74.4-87.8-215.2 14.6-301.4 77.8-65.4 197.8-55.6 273 21l70 71.4 70-71.4c75.6-77 195.6-86.4 273-21.2 102.2 86.2 87 227.8 14.6 301.6z" fill="#8a8a8a" p-id="1121"></path></svg>